<svg width="64" height="64" viewBox="0 0 64 64" fill="none" xmlns="http://www.w3.org/2000/svg">
<rect y="0.00744629" width="64" height="64" rx="32" fill="#F8F9FD"/>
<path d="M39.4667 23.0796L31.9333 19.0263C31.1333 18.5996 30.1867 18.5996 29.3867 19.0263L21.8667 23.0796C21.32 23.3863 20.9733 23.973 20.9733 24.613C20.9733 25.2663 21.3067 25.853 21.8667 26.1463L29.4 30.1996C29.8 30.413 30.24 30.5196 30.6667 30.5196C31.0933 30.5196 31.5467 30.413 31.9333 30.1996L39.4667 26.1463C40.0133 25.853 40.36 25.2663 40.36 24.613C40.36 23.973 40.0133 23.3863 39.4667 23.0796Z" fill="#19191C"/>
<path d="M28.16 31.613L21.16 28.1196C20.6133 27.8396 20 27.8796 19.48 28.1863C18.9733 28.5063 18.6667 29.053 18.6667 29.653V36.2663C18.6667 37.413 19.3067 38.4396 20.3333 38.9596L27.3333 42.453C27.5733 42.573 27.84 42.6396 28.1067 42.6396C28.4133 42.6396 28.7333 42.5463 29.0133 42.3863C29.52 42.0663 29.8267 41.5196 29.8267 40.9196V34.3063C29.8133 33.1596 29.1733 32.133 28.16 31.613Z" fill="#19191C"/>
<path d="M42.6667 29.653V32.933C42.0267 32.7463 41.3467 32.6663 40.6667 32.6663C38.8533 32.6663 37.08 33.293 35.68 34.413C33.76 35.9196 32.6667 38.1996 32.6667 40.6663C32.6667 41.3196 32.7467 41.973 32.92 42.5996C32.72 42.573 32.52 42.493 32.3333 42.373C31.8267 42.0663 31.52 41.5196 31.52 40.9196V34.3063C31.52 33.1596 32.16 32.133 33.1733 31.613L40.1733 28.1196C40.72 27.8396 41.3333 27.8796 41.8533 28.1863C42.36 28.5063 42.6667 29.053 42.6667 29.653Z" fill="#19191C"/>
<path d="M45.3333 36.9329C45.3333 36.9196 45.32 36.9063 45.3067 36.8929C45.2533 36.8129 45.1867 36.7329 45.12 36.6663C45.1067 36.6529 45.0933 36.6263 45.08 36.6129C44 35.4129 42.4133 34.6663 40.6667 34.6663C38.9867 34.6663 37.4533 35.3596 36.36 36.4796C35.3067 37.5596 34.6667 39.0396 34.6667 40.6663C34.6667 41.7863 34.9867 42.8529 35.5333 43.7596C35.8267 44.2529 36.2 44.7063 36.6267 45.0796C36.6533 45.0929 36.6667 45.1063 36.68 45.1196C36.7467 45.1863 36.8133 45.2396 36.8933 45.3063C36.8933 45.3063 36.8933 45.3063 36.9067 45.3063C36.92 45.3196 36.9333 45.3329 36.9467 45.3329C37.9467 46.1729 39.24 46.6663 40.6667 46.6663C42.8533 46.6663 44.76 45.4929 45.8 43.7596C46.1067 43.2396 46.3467 42.6663 46.4933 42.0663C46.6133 41.6129 46.6667 41.1463 46.6667 40.6663C46.6667 39.2529 46.1733 37.9463 45.3333 36.9329ZM42.9067 41.6396H41.6667V42.9329C41.6667 43.4796 41.2133 43.9329 40.6667 43.9329C40.12 43.9329 39.6667 43.4796 39.6667 42.9329V41.6396H38.4267C37.88 41.6396 37.4267 41.1863 37.4267 40.6396C37.4267 40.0929 37.88 39.6396 38.4267 39.6396H39.6667V38.4529C39.6667 37.9063 40.12 37.4529 40.6667 37.4529C41.2133 37.4529 41.6667 37.9063 41.6667 38.4529V39.6396H42.9067C43.4533 39.6396 43.9067 40.0929 43.9067 40.6396C43.9067 41.1863 43.4667 41.6396 42.9067 41.6396Z" fill="#19191C"/>
</svg>
