<svg width="37" height="36" viewBox="0 0 37 36" fill="none" xmlns="http://www.w3.org/2000/svg">
<path d="M34.7078 10.8796C34.0466 9.33502 33.1716 7.89558 32.1094 6.60546C30.5392 4.6414 28.5798 3.03932 26.3599 1.90469C24.14 0.770079 21.7101 0.128625 19.2301 0.022554C16.7501 -0.0835167 14.2763 0.348199 11.9713 1.28931C9.66644 2.2304 7.58274 3.65955 5.8574 5.48267C4.13205 7.30579 2.80417 9.48155 1.96117 11.8668C1.11816 14.2519 0.77913 16.7925 0.966401 19.3212C1.15368 21.85 1.863 24.3095 3.04769 26.5379C4.23238 28.7664 5.86557 30.7133 7.83978 32.2504C9.10653 33.2564 10.5063 34.0742 11.9973 34.6795C14.0878 35.5547 16.3252 36.0055 18.5844 36.0068C23.2478 35.9963 27.7169 34.0971 31.0122 30.7256C34.3073 27.3541 36.1596 22.7854 36.163 18.0209C36.1663 15.5633 35.6709 13.1316 34.7078 10.8796ZM18.5714 3.67195C20.6003 3.67174 22.6046 4.12477 24.4439 4.99932C23.9954 5.19733 23.5238 5.33563 23.0407 5.41082C21.4513 5.64589 19.9789 6.39981 18.8432 7.56007C17.7075 8.72032 16.9696 10.2247 16.7395 11.8486C16.6385 12.7593 16.233 13.6066 15.5916 14.2474C14.9502 14.8883 14.1121 15.2833 13.2186 15.3661C11.6291 15.6012 10.1566 16.3552 9.021 17.5154C7.88536 18.6757 7.14741 20.18 6.91733 21.8039C6.83942 22.6699 6.47778 23.4837 5.89093 24.1135C4.87838 21.9278 4.42352 19.5157 4.56867 17.102C4.71382 14.6883 5.45426 12.3513 6.7211 10.3084C7.98793 8.26573 9.73999 6.58357 11.8142 5.41857C13.8885 4.25358 16.2175 3.64361 18.5844 3.6454L18.5714 3.67195ZM7.82679 27.3125C7.98269 27.1665 8.1386 27.0338 8.29451 26.8745C9.45037 25.7296 10.1923 24.2183 10.3993 22.5871C10.4832 21.6701 10.8839 20.8137 11.5296 20.1712C12.151 19.5105 12.9873 19.1044 13.8812 19.0297C15.4707 18.7946 16.9431 18.0407 18.0787 16.8804C19.2144 15.7202 19.9523 14.2158 20.1824 12.5919C20.2387 11.6329 20.6415 10.7294 21.3128 10.0566C21.9495 9.40868 22.7938 9.01744 23.6904 8.9549C25.1506 8.74965 26.5124 8.08643 27.5881 7.05677C28.8128 8.09487 29.8504 9.34369 30.6542 10.7469C30.6049 10.815 30.5482 10.8774 30.4853 10.9327C29.8652 11.5993 29.0299 12.0143 28.1337 12.1008C26.5426 12.3318 25.0679 13.0844 23.9315 14.2453C22.7952 15.4064 22.0585 16.9129 21.8325 18.5386C21.7409 19.4523 21.3429 20.3057 20.706 20.954C20.069 21.6024 19.2323 22.0058 18.3375 22.0959C16.7434 22.3292 15.2655 23.0816 14.1232 24.2414C12.9811 25.4012 12.2354 26.9065 11.9973 28.5337C11.9274 29.1824 11.7093 29.8053 11.3607 30.3522C10.0277 29.5436 8.83381 28.5167 7.82679 27.3125ZM18.5714 32.4362C17.2531 32.4377 15.941 32.25 14.6737 31.8787C15.1073 31.0531 15.3891 30.1532 15.5052 29.2239C15.5963 28.3122 15.9924 27.4604 16.6267 26.8124C17.261 26.1643 18.0947 25.7596 18.9872 25.6666C20.579 25.4342 22.0544 24.6814 23.1926 23.5209C24.3308 22.3605 25.0707 20.8546 25.3014 19.2288C25.3925 18.317 25.7886 17.4653 26.4229 16.8172C27.0572 16.1692 27.8909 15.7645 28.7833 15.6714C29.9812 15.5123 31.123 15.0566 32.1094 14.3441C32.6571 16.4651 32.722 18.686 32.2991 20.8367C31.8762 22.9873 30.9766 25.0105 29.6695 26.7508C28.3625 28.491 26.6827 29.9024 24.7588 30.8764C22.8351 31.8504 20.7185 32.3613 18.5714 32.3698V32.4362Z" fill="#FF5C00"/>
</svg>
