<svg width="64" height="64" viewBox="0 0 64 64" fill="none" xmlns="http://www.w3.org/2000/svg">
<rect y="0.00744629" width="64" height="64" rx="32" fill="#F8F9FD"/>
<path d="M29.24 32.9996H20C19.2667 32.9996 18.6667 33.5996 18.6667 34.333V37.5863C18.6667 41.8663 22.1333 45.333 26.4133 45.333H28.68C29.7067 45.333 30.3333 44.2396 29.84 43.333C28.7867 41.373 28.3733 39.013 28.8933 36.533C29.08 35.6263 29.4 34.773 29.8267 33.973C30.0533 33.533 29.7467 32.9996 29.24 32.9996ZM25 39.9996C25 40.5463 24.5467 40.9996 24 40.9996C23.4533 40.9996 23 40.5463 23 39.9996V37.333C23 36.7863 23.4533 36.333 24 36.333C24.5467 36.333 25 36.7863 25 37.333V39.9996Z" fill="#19191C"/>
<path d="M37.5867 18.6663H26.4133C22.1333 18.6663 18.6667 22.1329 18.6667 26.4129V29.6663C18.6667 30.3996 19.2667 30.9996 20 30.9996H31.7867C32.08 30.9996 32.36 30.8929 32.6 30.7063C33.7467 29.8263 35.0933 29.1863 36.5333 28.8929C39.0133 28.3729 41.3733 28.7863 43.3333 29.8396C44.24 30.3196 45.3333 29.7063 45.3333 28.6796V26.4129C45.3333 22.1329 41.8667 18.6663 37.5867 18.6663ZM25 26.9996C25 27.5463 24.5467 27.9996 24 27.9996C23.4533 27.9996 23 27.5463 23 26.9996V24.3329C23 23.7863 23.4533 23.3329 24 23.3329C24.5467 23.3329 25 23.7863 25 24.3329V26.9996ZM30.3333 26.9996C30.3333 27.5463 29.88 27.9996 29.3333 27.9996C28.7867 27.9996 28.3333 27.5463 28.3333 26.9996V24.3329C28.3333 23.7863 28.7867 23.3329 29.3333 23.3329C29.88 23.3329 30.3333 23.7863 30.3333 24.3329V26.9996ZM40 26.6663H34.6667C34.12 26.6663 33.6667 26.2129 33.6667 25.6663C33.6667 25.1196 34.12 24.6663 34.6667 24.6663H40C40.5467 24.6663 41 25.1196 41 25.6663C41 26.2129 40.5467 26.6663 40 26.6663Z" fill="#19191C"/>
<path d="M38.6667 30.6663C34.2533 30.6663 30.6667 34.2529 30.6667 38.6663C30.6667 43.0796 34.2533 46.6663 38.6667 46.6663C43.08 46.6663 46.6667 43.0796 46.6667 38.6663C46.6667 34.2529 43.08 30.6663 38.6667 30.6663ZM42.5733 40.2663C42.36 40.7863 42.0533 41.2529 41.6533 41.6529C40.8533 42.4529 39.8 42.8929 38.6667 42.8929C37.76 42.8929 36.9067 42.5996 36.1867 42.0663V42.2529C36.1867 42.6663 35.8533 43.0129 35.4267 43.0129C35 42.9996 34.6667 42.6663 34.6667 42.2396V40.3196C34.6667 39.9063 35 39.5596 35.4267 39.5596H37.3467C37.76 39.5596 38.1067 39.8929 38.1067 40.3196C38.1067 40.7063 37.8267 40.9996 37.4533 41.0529C38.4667 41.5463 39.76 41.3863 40.5733 40.5729C40.8267 40.3196 41.0267 40.0129 41.16 39.6796C41.32 39.2929 41.76 39.1063 42.1467 39.2663C42.5467 39.4263 42.7333 39.8796 42.5733 40.2663ZM42.6667 37.0129C42.6667 37.4263 42.3333 37.7729 41.9067 37.7729H39.9867C39.5733 37.7729 39.2267 37.4396 39.2267 37.0129C39.2267 36.6263 39.5067 36.3329 39.88 36.2796C38.8667 35.7863 37.5733 35.9463 36.7467 36.7596C36.52 36.9863 36.3467 37.2396 36.2133 37.5196C36.08 37.7996 35.8133 37.9596 35.5333 37.9596C35.4267 37.9596 35.32 37.9329 35.2133 37.8929C34.84 37.7196 34.6667 37.2663 34.8533 36.8796C35.0667 36.4396 35.3467 36.0396 35.68 35.6929C36.48 34.8929 37.5333 34.4529 38.6667 34.4529C39.5733 34.4529 40.4267 34.7463 41.1467 35.2796V35.1063C41.1467 34.6929 41.48 34.3463 41.9067 34.3463C42.3333 34.3463 42.6667 34.6663 42.6667 35.0929V37.0129Z" fill="#19191C"/>
</svg>
