<svg width="64" height="64" viewBox="0 0 64 64" fill="none" xmlns="http://www.w3.org/2000/svg">
<rect y="0.00744629" width="64" height="64" rx="32" fill="#F8F9FD"/>
<path d="M38.6667 21.333H25.3333C21.3333 21.333 18.6667 23.333 18.6667 27.9997V32.7463C18.6667 33.2397 19.1733 33.5463 19.6133 33.3463C20.92 32.7463 22.4267 32.5197 24.0133 32.7997C27.52 33.4263 30.0933 36.6797 30 40.2397C29.9867 40.7997 29.9067 41.3463 29.76 41.8797C29.6533 42.293 29.9867 42.6797 30.4133 42.6797H38.6667C42.6667 42.6797 45.3333 40.6797 45.3333 36.013V27.9997C45.3333 23.333 42.6667 21.333 38.6667 21.333ZM32 35.333C30.16 35.333 28.6667 33.8397 28.6667 31.9997C28.6667 30.1597 30.16 28.6663 32 28.6663C33.84 28.6663 35.3333 30.1597 35.3333 31.9997C35.3333 33.8397 33.84 35.333 32 35.333ZM41.6667 34.6663C41.6667 35.213 41.2133 35.6663 40.6667 35.6663C40.12 35.6663 39.6667 35.213 39.6667 34.6663V29.333C39.6667 28.7863 40.12 28.333 40.6667 28.333C41.2133 28.333 41.6667 28.7863 41.6667 29.333V34.6663Z" fill="#19191C"/>
<path d="M22.6667 34.6663C21 34.6663 19.4933 35.4529 18.52 36.6529C17.7733 37.5729 17.3333 38.7329 17.3333 39.9996C17.3333 42.9463 19.7333 45.3329 22.6667 45.3329C24.9867 45.3329 26.9733 43.8529 27.6933 41.7729C27.8933 41.2263 28 40.6263 28 39.9996C28 37.0663 25.6133 34.6663 22.6667 34.6663ZM25.8133 42.3196C25.7867 42.3996 25.7333 42.4796 25.68 42.5329L24.72 43.4796C24.6 43.6129 24.44 43.6663 24.2667 43.6663C24.0933 43.6663 23.92 43.6129 23.8 43.4796C23.5867 43.2796 23.56 42.9596 23.6933 42.7196H21.0133C20.16 42.7196 19.4667 42.0263 19.4667 41.1596V41.0263C19.4667 40.6529 19.76 40.3729 20.12 40.3729C20.48 40.3729 20.7733 40.6529 20.7733 41.0263V41.1596C20.7733 41.3063 20.88 41.4263 21.0267 41.4263H23.7067C23.5733 41.1729 23.6 40.8663 23.8133 40.6529C24.0667 40.3996 24.48 40.3996 24.72 40.6529L25.68 41.6129C25.7333 41.6663 25.7867 41.7463 25.8267 41.8263C25.88 41.9729 25.88 42.1596 25.8133 42.3196ZM25.8667 38.9729C25.8667 39.3463 25.5733 39.6263 25.2133 39.6263C24.8533 39.6263 24.56 39.3463 24.56 38.9729V38.8396C24.56 38.6929 24.4533 38.5729 24.3067 38.5729H21.64C21.7733 38.8263 21.7467 39.1329 21.5333 39.3463C21.4133 39.4663 21.2533 39.5329 21.0667 39.5329C20.9067 39.5329 20.7333 39.4663 20.6133 39.3463L19.6533 38.3863C19.6 38.3329 19.5467 38.2529 19.5067 38.1729C19.4533 38.0129 19.4533 37.8396 19.5067 37.6796C19.5467 37.6129 19.5867 37.5196 19.6533 37.4663L20.6133 36.5196C20.8667 36.2529 21.28 36.2529 21.52 36.5196C21.7333 36.7196 21.76 37.0396 21.6267 37.2796H24.3067C25.16 37.2796 25.8533 37.9729 25.8533 38.8396V38.9729H25.8667Z" fill="#19191C"/>
</svg>
