<svg width="32" height="32" viewBox="0 0 32 32" fill="none" xmlns="http://www.w3.org/2000/svg">
<rect width="32" height="32" rx="16" fill="#19191C"/>
<path d="M22.1666 20.3135L21.0666 20.5735C20.82 20.6335 20.6266 20.8202 20.5733 21.0668L20.34 22.0468C20.2133 22.5802 19.5333 22.7468 19.18 22.3268L17.1866 20.0335C17.0266 19.8468 17.1133 19.5535 17.3533 19.4935C18.5333 19.2068 19.5933 18.5468 20.3733 17.6068C20.5 17.4535 20.7266 17.4335 20.8666 17.5735L22.3466 19.0535C22.8533 19.5602 22.6733 20.1935 22.1666 20.3135Z" fill="white"/>
<path d="M9.79999 20.3135L10.9 20.5735C11.1467 20.6335 11.34 20.8202 11.3933 21.0668L11.6267 22.0468C11.7533 22.5802 12.4333 22.7468 12.7867 22.3268L14.78 20.0335C14.94 19.8468 14.8533 19.5535 14.6133 19.4935C13.4333 19.2068 12.3733 18.5468 11.5933 17.6068C11.4667 17.4535 11.24 17.4335 11.1 17.5735L9.61999 19.0535C9.11332 19.5602 9.29332 20.1935 9.79999 20.3135Z" fill="white"/>
<path d="M16 9.33325C13.42 9.33325 11.3333 11.4199 11.3333 13.9999C11.3333 14.9666 11.62 15.8533 12.1133 16.5933C12.8333 17.6599 13.9733 18.4133 15.3 18.6066C15.5266 18.6466 15.76 18.6666 16 18.6666C16.24 18.6666 16.4733 18.6466 16.7 18.6066C18.0266 18.4133 19.1666 17.6599 19.8866 16.5933C20.38 15.8533 20.6666 14.9666 20.6666 13.9999C20.6666 11.4199 18.58 9.33325 16 9.33325ZM18.04 13.8533L17.4866 14.4066C17.3933 14.4999 17.34 14.6799 17.3733 14.8133L17.5333 15.4999C17.66 16.0399 17.3733 16.2533 16.8933 15.9666L16.2266 15.5733C16.1066 15.4999 15.9066 15.4999 15.7866 15.5733L15.12 15.9666C14.64 16.2466 14.3533 16.0399 14.48 15.4999L14.64 14.8133C14.6666 14.6866 14.62 14.4999 14.5266 14.4066L13.96 13.8533C13.6333 13.5266 13.74 13.1999 14.1933 13.1266L14.9066 13.0066C15.0266 12.9866 15.1666 12.8799 15.22 12.7733L15.6133 11.9866C15.8266 11.5599 16.1733 11.5599 16.3866 11.9866L16.78 12.7733C16.8333 12.8799 16.9733 12.9866 17.1 13.0066L17.8133 13.1266C18.26 13.1999 18.3666 13.5266 18.04 13.8533Z" fill="white"/>
</svg>
