<svg width="32" height="32" viewBox="0 0 32 32" fill="none" xmlns="http://www.w3.org/2000/svg">
<rect width="32" height="32" rx="16" fill="#19191C"/>
<path d="M22 23.1667H10C9.72667 23.1667 9.5 22.9401 9.5 22.6667C9.5 22.3934 9.72667 22.1667 10 22.1667H22C22.2733 22.1667 22.5 22.3934 22.5 22.6667C22.5 22.9401 22.2733 23.1667 22 23.1667Z" fill="white"/>
<path d="M11.7333 13.5867H10.6667C10.3 13.5867 10 13.8867 10 14.2533V20C10 20.3667 10.3 20.6667 10.6667 20.6667H11.7333C12.1 20.6667 12.4 20.3667 12.4 20V14.2533C12.4 13.88 12.1 13.5867 11.7333 13.5867Z" fill="white"/>
<path d="M16.5333 11.46H15.4667C15.1 11.46 14.8 11.76 14.8 12.1266V20C14.8 20.3666 15.1 20.6666 15.4667 20.6666H16.5333C16.9 20.6666 17.2 20.3666 17.2 20V12.1266C17.2 11.76 16.9 11.46 16.5333 11.46Z" fill="white"/>
<path d="M21.3334 9.33325H20.2667C19.9 9.33325 19.6 9.63325 19.6 9.99992V19.9999C19.6 20.3666 19.9 20.6666 20.2667 20.6666H21.3334C21.7 20.6666 22 20.3666 22 19.9999V9.99992C22 9.63325 21.7 9.33325 21.3334 9.33325Z" fill="white"/>
</svg>
