<svg width="64" height="64" viewBox="0 0 64 64" fill="none" xmlns="http://www.w3.org/2000/svg">
<rect y="0.00744629" width="64" height="64" rx="32" fill="#F8F9FD"/>
<path d="M43.88 30.8263V24.973C43.88 23.8797 43.0533 22.6397 42.0267 22.2263L34.6 19.1863C32.9333 18.5063 31.0533 18.5063 29.3867 19.1863L21.96 22.2263C20.9467 22.6397 20.12 23.8797 20.12 24.973V30.8263C20.12 37.3463 24.8533 43.453 31.32 45.2397C31.76 45.3597 32.24 45.3597 32.68 45.2397C39.1467 43.453 43.88 37.3463 43.88 30.8263ZM33 33.1597V36.6663C33 37.213 32.5467 37.6663 32 37.6663C31.4533 37.6663 31 37.213 31 36.6663V33.1597C29.6533 32.733 28.6667 31.4797 28.6667 29.9997C28.6667 28.1597 30.16 26.6663 32 26.6663C33.84 26.6663 35.3333 28.1597 35.3333 29.9997C35.3333 31.493 34.3467 32.733 33 33.1597Z" fill="#292D32"/>
</svg>
