<svg width="64" height="64" viewBox="0 0 64 64" fill="none" xmlns="http://www.w3.org/2000/svg">
<rect y="0.00744629" width="64" height="64" rx="32" fill="#F8F9FD"/>
<path d="M42.8 28.293C40.3867 28.293 39.4 26.5863 40.6 24.493C41.2933 23.2796 40.88 21.733 39.6667 21.0396L37.36 19.7196C36.3067 19.093 34.9467 19.4663 34.32 20.5196L34.1733 20.773C32.9733 22.8663 31 22.8663 29.7867 20.773L29.64 20.5196C29.04 19.4663 27.68 19.093 26.6267 19.7196L24.32 21.0396C23.1067 21.733 22.6933 23.293 23.3867 24.5063C24.6 26.5863 23.6133 28.293 21.2 28.293C19.8133 28.293 18.6667 29.4263 18.6667 30.8263V33.173C18.6667 34.5596 19.8 35.7063 21.2 35.7063C23.6133 35.7063 24.6 37.413 23.3867 39.5063C22.6933 40.7196 23.1067 42.2663 24.32 42.9596L26.6267 44.2796C27.68 44.9063 29.04 44.533 29.6667 43.4796L29.8133 43.2263C31.0133 41.133 32.9867 41.133 34.2 43.2263L34.3467 43.4796C34.9733 44.533 36.3333 44.9063 37.3867 44.2796L39.6933 42.9596C40.9067 42.2663 41.32 40.7063 40.6267 39.5063C39.4133 37.413 40.4 35.7063 42.8133 35.7063C44.2 35.7063 45.3467 34.573 45.3467 33.173V30.8263C45.3333 29.4396 44.2 28.293 42.8 28.293ZM32 36.333C29.6133 36.333 27.6667 34.3863 27.6667 31.9996C27.6667 29.613 29.6133 27.6663 32 27.6663C34.3867 27.6663 36.3333 29.613 36.3333 31.9996C36.3333 34.3863 34.3867 36.333 32 36.333Z" fill="#19191C"/>
</svg>
