<svg width="44" height="42" viewBox="0 0 44 42" fill="none" xmlns="http://www.w3.org/2000/svg">
<path d="M20.5652 4.90663C21.0262 3.97275 21.2566 3.50582 21.5695 3.35663C21.8418 3.22683 22.1581 3.22683 22.4303 3.35663C22.7432 3.50582 22.9737 3.97275 23.4346 4.90663L27.808 13.7666C27.9441 14.0423 28.0121 14.1801 28.1116 14.2872C28.1996 14.3819 28.3052 14.4587 28.4225 14.5132C28.555 14.5748 28.7071 14.5971 29.0113 14.6415L38.7939 16.0714C39.824 16.222 40.3391 16.2973 40.5774 16.5489C40.7848 16.7678 40.8824 17.0686 40.8429 17.3676C40.7975 17.7112 40.4246 18.0744 39.6788 18.8008L32.6028 25.6928C32.3822 25.9077 32.2719 26.0151 32.2007 26.1429C32.1377 26.2561 32.0973 26.3804 32.0817 26.509C32.0641 26.6542 32.0901 26.806 32.1422 27.1095L33.8118 36.8442C33.9879 37.871 34.0759 38.3844 33.9105 38.689C33.7665 38.9541 33.5106 39.14 33.214 39.195C32.8731 39.2581 32.4121 39.0157 31.4901 38.5308L22.7446 33.9317C22.4721 33.7884 22.3359 33.7167 22.1924 33.6886C22.0653 33.6636 21.9346 33.6636 21.8075 33.6886C21.6639 33.7167 21.5277 33.7884 21.2552 33.9317L12.5097 38.5308C11.5877 39.0157 11.1267 39.2581 10.7858 39.195C10.4892 39.14 10.2333 38.9541 10.0894 38.689C9.92388 38.3844 10.0119 37.871 10.188 36.8442L11.8577 27.1095C11.9097 26.806 11.9357 26.6542 11.9181 26.509C11.9025 26.3804 11.8621 26.2561 11.7991 26.1429C11.7279 26.0151 11.6176 25.9077 11.397 25.6928L4.321 18.8008C3.5752 18.0744 3.20231 17.7112 3.15693 17.3676C3.11745 17.0686 3.21498 16.7678 3.42238 16.5489C3.66075 16.2973 4.17582 16.222 5.20597 16.0714L14.9885 14.6415C15.2927 14.5971 15.4448 14.5748 15.5773 14.5132C15.6946 14.4587 15.8002 14.3819 15.8882 14.2872C15.9877 14.1801 16.0557 14.0423 16.1918 13.7666L20.5652 4.90663Z" fill="#FF5C00" stroke="#FF5C00" stroke-width="4.8" stroke-linecap="round" stroke-linejoin="round"/>
</svg>
