<svg width="32" height="32" viewBox="0 0 32 32" fill="none" xmlns="http://www.w3.org/2000/svg">
<rect width="32" height="32" rx="16" fill="white"/>
<path d="M14 22.6666C16.5773 22.6666 18.6666 20.5772 18.6666 17.9999C18.6666 15.4226 16.5773 13.3333 14 13.3333C11.4227 13.3333 9.33331 15.4226 9.33331 17.9999C9.33331 20.5772 11.4227 22.6666 14 22.6666Z" fill="black"/>
<path d="M22.6667 13.9999C22.6667 15.8266 21.62 17.4066 20.0934 18.1666C19.8867 18.2733 19.6534 18.1066 19.6334 17.8799C19.4067 14.9133 17.0667 12.5933 14.12 12.3666C13.8867 12.3466 13.7267 12.1133 13.8334 11.9066C14.5934 10.3799 16.1734 9.33325 18 9.33325C20.58 9.33325 22.6667 11.4199 22.6667 13.9999Z" fill="black"/>
</svg>
