<svg width="64" height="64" viewBox="0 0 64 64" fill="none" xmlns="http://www.w3.org/2000/svg">
<rect y="0.00744629" width="64" height="64" rx="32" fill="#F8F9FD"/>
<path d="M37.5867 18.6663H26.4133C21.56 18.6663 18.6667 21.5596 18.6667 26.4129V37.5729C18.6667 42.4396 21.56 45.3329 26.4133 45.3329H37.5733C42.4267 45.3329 45.32 42.4396 45.32 37.5863V26.4129C45.3333 21.5596 42.44 18.6663 37.5867 18.6663ZM38.5067 31.3729C38.5067 31.8929 38.0933 32.3063 37.5733 32.3063C37.0533 32.3063 36.64 31.8929 36.64 31.3729V31.1329L33.0133 34.7596C32.8133 34.9596 32.5467 35.0529 32.2667 35.0263C31.9867 34.9996 31.7333 34.8529 31.5867 34.6129L30.2267 32.5863L27.0533 35.7596C26.8667 35.9463 26.64 36.0263 26.4 36.0263C26.16 36.0263 25.92 35.9329 25.7467 35.7596C25.3867 35.3996 25.3867 34.8129 25.7467 34.4396L29.72 30.4663C29.92 30.2663 30.1867 30.1729 30.4667 30.1996C30.7467 30.2263 31 30.3729 31.1467 30.6129L32.5067 32.6396L35.32 29.8263H35.08C34.56 29.8263 34.1467 29.4129 34.1467 28.8929C34.1467 28.3729 34.56 27.9596 35.08 27.9596H37.56C37.68 27.9596 37.8 27.9863 37.92 28.0263C38.1467 28.1196 38.3333 28.3063 38.4267 28.5329C38.48 28.6529 38.4933 28.7729 38.4933 28.8929V31.3729H38.5067Z" fill="#292D32"/>
</svg>
