<svg width="24" height="20" viewBox="0 0 24 20" fill="none" xmlns="http://www.w3.org/2000/svg">
<path d="M7.54776 20.0068C16.6048 20.0068 21.5578 12.313 21.5578 5.64124C21.5578 5.42274 21.5534 5.20524 21.5438 4.98864C22.5075 4.27359 23.3393 3.38826 24 2.37414C23.1177 2.77634 22.1683 3.04704 21.1723 3.16909C22.1889 2.54404 22.9694 1.55519 23.3376 0.376486C22.371 0.964433 21.3136 1.3789 20.2109 1.60204C19.3123 0.620636 18.0331 0.00683594 16.6166 0.00683594C13.8974 0.00683594 11.6923 2.26794 11.6923 5.05509C11.6923 5.45134 11.7356 5.83664 11.8201 6.20634C7.72766 5.99519 4.09878 3.98609 1.67015 0.931136C1.23273 1.70166 1.00265 2.57736 1.00341 3.46884C1.00341 5.22054 1.87268 6.76689 3.19463 7.67159C2.41268 7.6471 1.6479 7.43053 0.964585 7.04009C0.963854 7.06129 0.963854 7.08194 0.963854 7.10459C0.963854 9.54974 2.66112 11.5913 4.91419 12.0539C4.49104 12.1721 4.05439 12.2318 3.6158 12.2315C3.29907 12.2315 2.99039 12.1996 2.69039 12.1405C3.31727 14.1466 5.13502 15.6065 7.29019 15.6473C5.60488 17.0017 3.4819 17.8085 1.17454 17.8085C0.782024 17.8088 0.389833 17.7855 0 17.7385C2.17922 19.1708 4.76659 20.0068 7.54776 20.0068Z" fill="#F8F9FF"/>
</svg>
